# xmcd
#
# Track frame offsets:
#	150
#	5299
#	20569
#	35191
#	52125
#	71802
#	91065
#	107493
#	123483
#	143082
#	159120
#	174990
#	187859
#
# Disc length: 2722 seconds
#
# Revision: 12
# Processed by: cddbd v1.5.2PL0 Copyright (c) Steve Scherf et al.
# Submitted via: Jack! The Knife 20 Magnifico
#
DISCID=a30aa00d
DTITLE=Celtic Frost - Cold Lake
DYEAR=1988
DGENRE=Metal
TTITLE0=Human (Intro)
TTITLE1=Seduce Me Tonight
TTITLE2=Petty Obsession
TTITLE3=(Once) They Were Eagles
TTITLE4=Cherry Orchards
TTITLE5=Juices Like Wine
TTITLE6=Little Velvet
TTITLE7=Blood On Kisses
TTITLE8=Downtown Hanoi
TTITLE9=Dance Sleazy
TTITLE10=Roses Without Thorns
TTITLE11=Tease Me
TTITLE12=Mexican Radio (Live)
EXTD=Celtic Frost and Tony Platt
EXTT0=Tom Gabriel Fischer
EXTT1=Tom Gabriel Fischer
EXTT2=Tom Gabriel Fischer
EXTT3=Fischer, Amberg, Bryant
EXTT4=Oliver Amberg
EXTT5=Bryant, Fischer
EXTT6=Tom Gabriel Fischer
EXTT7=Tom Gabriel Fischer
EXTT8=Amberg, Fischer
EXTT9=Tom Gabriel Fischer
EXTT10=Bryant, Fischer
EXTT11=Tom Gabriel Fischer
EXTT12=Wall Of Voodoo
PLAYORDER=
